<svg xmlns="http://www.w3.org/2000/svg" width="1920" height="1800" viewBox="0 0 1920 1800" role="img" aria-labelledby="title description">
  <title id="title">Requisitos funcionais do sistema CuidarBem</title>
  <desc id="description">Tabela com os requisitos funcionais da plataforma digital CuidarBem.</desc>
  <style>
    .bg{fill:#f7fbfc}.title{font:800 42px Arial,sans-serif;fill:#123c4a}.intro{font:500 20px Arial,sans-serif;fill:#4f6d77}.head{fill:#176f70}.th{font:800 18px Arial,sans-serif;fill:#fff;letter-spacing:.4px}.rowA{fill:#fff}.rowB{fill:#eef8f7}.line{stroke:#c9dfe4;stroke-width:1.5}.id{font:800 19px Arial,sans-serif;fill:#147861}.name{font:800 19px Arial,sans-serif;fill:#163e4d}.desc{font:500 17px Arial,sans-serif;fill:#3f606b}.footer{font:500 15px Arial,sans-serif;fill:#55737c}
  </style>
  <rect class="bg" width="1920" height="1800"/>
  <text x="110" y="88" class="title">1. REQUISITOS FUNCIONAIS</text>
  <text x="110" y="126" class="intro">Os requisitos funcionais descrevem os serviços que o sistema CuidarBem deve fornecer aos seus usuários.</text>
  <text x="110" y="156" class="intro">A tabela apresenta as funcionalidades essenciais identificadas para a plataforma.</text>
  <rect x="110" y="184" width="1700" height="8" rx="4" fill="#18a47c"/>

  <rect x="110" y="230" width="1700" height="70" rx="12" class="head"/>
  <text x="160" y="273" class="th">ID</text><text x="330" y="273" class="th">REQUISITO FUNCIONAL</text><text x="800" y="273" class="th">DESCRIÇÃO</text>

  <g>
    <rect x="110" y="300" width="1700" height="125" class="rowA"/><text x="160" y="350" class="id">RF01</text><text x="330" y="342" class="name">Cadastro e autenticação</text><text x="800" y="337" class="desc">O sistema deve permitir o cadastro, login, recuperação de senha e gerenciamento</text><text x="800" y="363" class="desc">da conta para clientes, cuidadores e administradores.</text>
    <rect x="110" y="425" width="1700" height="125" class="rowB"/><text x="160" y="475" class="id">RF02</text><text x="330" y="467" class="name">Perfil do cuidador</text><text x="800" y="462" class="desc">O sistema deve permitir que cuidadores mantenham perfil profissional com foto,</text><text x="800" y="488" class="desc">experiência, especialidades, preços, documentos e status de verificação.</text>
    <rect x="110" y="550" width="1700" height="125" class="rowA"/><text x="160" y="600" class="id">RF03</text><text x="330" y="592" class="name">Busca de cuidadores</text><text x="800" y="587" class="desc">O sistema deve permitir ao cliente buscar e filtrar cuidadores por especialidade,</text><text x="800" y="613" class="desc">localização, disponibilidade, serviços ofertados e avaliações.</text>
    <rect x="110" y="675" width="1700" height="125" class="rowB"/><text x="160" y="725" class="id">RF04</text><text x="330" y="717" class="name">Agenda e disponibilidade</text><text x="800" y="712" class="desc">O sistema deve permitir ao cuidador configurar seus dias, horários e serviços disponíveis,</text><text x="800" y="738" class="desc">bem como consultar os atendimentos agendados.</text>
    <rect x="110" y="800" width="1700" height="125" class="rowA"/><text x="160" y="850" class="id">RF05</text><text x="330" y="842" class="name">Agendamento de serviço</text><text x="800" y="837" class="desc">O sistema deve permitir ao cliente selecionar serviço, cuidador, período, endereço,</text><text x="800" y="863" class="desc">dados do paciente e observações para enviar uma solicitação de atendimento.</text>
    <rect x="110" y="925" width="1700" height="125" class="rowB"/><text x="160" y="975" class="id">RF06</text><text x="330" y="967" class="name">Gestão do atendimento</text><text x="800" y="962" class="desc">O sistema deve validar a disponibilidade, permitir confirmar ou cancelar solicitações,</text><text x="800" y="988" class="desc">registrar check-in e acompanhar os estados pendente, confirmado, em andamento e concluído.</text>
    <rect x="110" y="1050" width="1700" height="125" class="rowA"/><text x="160" y="1100" class="id">RF07</text><text x="330" y="1092" class="name">Comunicação pelo chat</text><text x="800" y="1087" class="desc">O sistema deve disponibilizar conversa entre cliente e cuidador vinculada ao agendamento</text><text x="800" y="1113" class="desc">confirmado para alinhamento do atendimento.</text>
    <rect x="110" y="1175" width="1700" height="125" class="rowB"/><text x="160" y="1225" class="id">RF08</text><text x="330" y="1217" class="name">Pagamento e repasse</text><text x="800" y="1212" class="desc">O sistema deve gerar pagamento via PIX, registrar seu status, possibilitar reembolso</text><text x="800" y="1238" class="desc">quando aplicável e liberar o saldo do cuidador após a conclusão do atendimento.</text>
    <rect x="110" y="1300" width="1700" height="125" class="rowA"/><text x="160" y="1350" class="id">RF09</text><text x="330" y="1342" class="name">Avaliações e feedbacks</text><text x="800" y="1337" class="desc">O sistema deve permitir avaliações de atendimentos concluídos e o envio de feedbacks</text><text x="800" y="1363" class="desc">relacionados à experiência do cliente e à qualidade do serviço.</text>
    <rect x="110" y="1425" width="1700" height="125" class="rowB"/><text x="160" y="1475" class="id">RF10</text><text x="330" y="1467" class="name">Administração e moderação</text><text x="800" y="1462" class="desc">O sistema deve permitir ao administrador verificar cuidadores, moderar usuários,</text><text x="800" y="1488" class="desc">analisar denúncias e consultar painéis e registros administrativos.</text>
  </g>
  <g class="line"><path d="M280 230V1550"/><path d="M750 230V1550"/><path d="M110 425H1810M110 550H1810M110 675H1810M110 800H1810M110 925H1810M110 1050H1810M110 1175H1810M110 1300H1810M110 1425H1810"/></g>
  <rect x="110" y="1600" width="1700" height="95" rx="14" fill="#e6f5f2" stroke="#b9dfd5" stroke-width="1.5"/>
  <text x="145" y="1640" class="name">Escopo:</text><text x="245" y="1640" class="desc">os requisitos acima representam as funcionalidades observadas na versão atual do projeto CuidarBem.</text>
  <text x="145" y="1670" class="footer">Referência conceitual: Sommerville (2019) — requisitos funcionais descrevem serviços e comportamentos que o sistema deve fornecer.</text>
</svg>
